@startuml ユースケース図
' left to right direction
' 多重度
' class 会社{}
' class 社員{}
' ' 会社 --> 社員:雇う
' 会社 "0..1" ---- "*" 社員
' note top of 会社:雇用者
' note top of 社員:従業員

' 集約リスト
' 会員リスト o-- 会員
' note right of 会員リスト
' end note
' 会員リストが開くても成り立つ

' 複合
' パソコン"1" *-- ハードディスク
' note right of パソコン
' ハードディスクがないとなりたちません
' end note
' 会社 o-- 社員
' 社員 *-- 社員証

' 依存関係
' left to right direction
' 注文<.. 注文管理
' note top of 注文管理
' 注文管理が注文のメソッドもしくは属性を呼び出している
' end note

' 継承
' class 社員{
' - 社員ID
' - 社員名
' ---
' + 社員ID設定（社員ID:int）:void
' + 社員ID取得（）:int
' + 社員名設定（社員名:String）:void
' + 社員名取得（）:String
' }
' class 技術社員{
' - プロジェクト名:String
' ---
' + プロジェクト名設定（プロジェクト名:String）:void
' + プロジェクト名取得（）:String
' }
' class 営業社員{
' - 担当地域名:String
' ---
' + 担当地域名設定（プロジェクト名:String）:void
' + 担当地域名取得（）:String
' }
' 社員<|--down- 技術社員
' 社員<|--down- 営業社員
' 技術社員 --|> 社員
' 営業社員 --|> 社員

'抽象クラス
' class Animal {
' ---
' + Walk:void
' + {abstract} eat():int
' + {abstract} cry():void
' }
' class Dog {
' ---
' + eat():int
' + cry():void
' }
' class Cat {
' ---
' + eat():int
' + cry():void
' }
' Animal <|-down- Dog
' Animal <|-down- Cat

'インターフェース
' class Word {
' ---
' + enter():void
' }
' class Excel {
' ---
' + enter():void
' }
' interface keyboard {
' ' <<interface>>
' ---
' + enter():void
' }
' keyboard <|.. Word
' keyboard <|.. Excel
' class User {
' }
' keyboard <-up- User:<< use >>

class Word {
---
+ enter():void
}
class Excel {
---
+ enter():void
}
circle "keyboard" as I1
Word --( I1
Excel --(
class User {
}
I1 <-- User:<< use >>
@enduml