@startuml 診察予約システム
state メニュー
state 今の順番
state 予約と確認
state あなたの順番

[*] -right-> メニュー
メニュー ---> 予約と確認 :予約
メニュー <--- 予約と確認 :取り消しボタン\nを押す
予約と確認 --> あなたの順番 :登録ボタン\nを押す
予約と確認 --> あなたの順番 :確認ボタン\nを押す
あなたの順番 --> メニュー :メニューボタン\nを押す
メニュー ---> 今の順番: 今の順番ボタン\nを押す
メニュー <--- 今の順番 : メニューボタン\nを押す
メニュー -right-> [*]
@enduml